<svg xmlns="http://www.w3.org/2000/svg" xmlns:xlink="http://www.w3.org/1999/xlink" viewBox="0 0 66.071 62.071" fill="#fff" fill-rule="evenodd" stroke="#000" stroke-linecap="round" stroke-linejoin="round">
    <use xlink:href="#A" x=".535" y=".535"/>
    <symbol id="A" overflow="visible">
        <g stroke="none">
            <path d="M33.965 20.826l-1.228 1.473c-1.717 2.278-2.617 4.852-2.741 7.709l-.036.477H.046c-.051-1.088.428-1.947 1.195-2.657l4.931-4.484 14.552-13.206 1.39-1.221.511.553 11.34 11.364z" fill="#00a6a0"/>
            <path d="M.046 30.477l29.914-.001c.064 1.33.212 2.645.605 3.924.593 1.932 1.548 3.664 2.905 5.168l.428.535-.428.453-11.06 11.06-.403.371-3.782-3.383-16.873-15.31C.705 32.707.228 32.036.054 31.17c-.046-.214-.078-.45-.029-.68z" fill="#00a8eb"/>
            <path d="M22.028 51.976l.403-.372 11.06-11.06.428-.453 1.799 1.485c2.193 1.564 4.802 2.439 7.495 2.516.137.004.273.024.409.036l.001 16.822c-1.4.075-2.791-.071-4.171-.263-4.839-.675-9.282-2.396-13.29-5.206-1.482-1.038-2.894-2.166-4.122-3.506z" fill="#3270b6"/>
            <path d="M33.965 20.827l-5.908-5.928-5.432-5.436-.511-.553c1.25-1.351 2.682-2.488 4.193-3.528A29.84 29.84 0 0 1 40.174.208c1.135-.126 2.273-.24 3.419-.171l.006 16.802c-1.37.077-2.725.236-4.042.651-1.924.607-3.632 1.585-5.124 2.941l-.468.396z" fill="#00af35"/>
            <path d="M43.61 60.95l-.001-16.822c1.398-.064 2.778-.236 4.118-.67 1.177-.38 2.299-.914 3.336-1.588.778-.505 1.615-.731 2.546-.578.617.091 1.188.376 1.631.815l7.773 7.775c.307.309.559.67.743 1.065.468.996.302 1.991-.471 2.78-.176.179-.373.339-.57.497-4.564 3.649-9.739 5.846-15.546 6.526-1.182.139-2.355.261-3.559.199z" fill="#3a1e7d"/>
            <path d="M43.599 16.838L43.592.036c.939-.093 1.876.011 2.805.107 3.354.302 6.634 1.163 9.704 2.547a30.41 30.41 0 0 1 6.752 4.173c1.388 1.133 1.542 2.481.45 3.894-.167.216-.36.414-.553.61l-7.28 7.28c-1.122 1.154-2.81 1.484-4.312.514-2.27-1.467-4.738-2.248-7.435-2.298-.045 0-.089-.017-.134-.028z" fill="#6fc227"/>
        </g>
    </symbol>
</svg>
