<?xml version="1.0" encoding="utf-8"?>
<!-- Generator: Adobe Illustrator 26.2.0, SVG Export Plug-In . SVG Version: 6.00 Build 0)  -->
<svg version="1.1" id="Calque_1" xmlns="http://www.w3.org/2000/svg" xmlns:xlink="http://www.w3.org/1999/xlink" x="0px" y="0px"
     viewBox="0 0 98 98" style="enable-background:new 0 0 98 98;" xml:space="preserve">
<style type="text/css">
	.st0{fill:#84BD00;}
	.st1{fill:#43B02A;}
	.st2{fill:#00A499;}
	.st3{fill:#009FDF;}
	.st4{fill:#0072CE;}
	.st5{fill:#10069F;}
</style>
    <g>
	<path class="st0" d="M95.1,14.1C86.8,7.1,76.5,3.7,66.2,3.7v25.1c3.8,0,7.7,1.1,11,3.2v0c1.8,1.3,4.6,1.5,6.4-0.3l11.3-11.3
		C97,18.3,97.3,15.9,95.1,14.1"/>
        <path class="st1" d="M51.9,34.7c4-4,9.1-5.9,14.3-5.9V3.7C54.6,3.7,43,8.1,34.2,16.9L51.9,34.7z"/>
        <path class="st2" d="M51.9,34.7L34.2,16.9L3,45.2c-1,1-1.6,2.3-1.6,3.8h32.8H46C46,43.8,48,38.6,51.9,34.7"/>
        <path class="st3" d="M34.2,81.1l17.7-17.7c-4-4-5.9-9.1-5.9-14.3H34.2H20.9H1.4c0,1.5,0.6,2.8,1.6,3.7L34.2,81.1
		C34.2,81,34.2,81.1,34.2,81.1L34.2,81.1L34.2,81.1L34.2,81.1L34.2,81.1z"/>
        <path class="st4" d="M51.9,63.3L51.9,63.3L34.2,81.1h0c8.9,8.9,20.5,13.3,32.1,13.3V69.3C61.1,69.3,55.9,67.3,51.9,63.3"/>
        <path class="st5" d="M94.9,77.7L83.6,66.3c-1.8-1.8-4.5-1.7-6.3-0.3v0c-3.3,2.2-7.2,3.2-11,3.2v25.1c10.3,0,20.5-3.5,28.9-10.4
		C97.3,82.1,97,79.7,94.9,77.7"/>
</g>
</svg>
